<svg xmlns="http://www.w3.org/2000/svg" xmlns:xlink="http://www.w3.org/1999/xlink" fill="none" version="1.1" width="408" height="243" viewBox="0 0 408 243"><defs><filter id="master_svg0_3_3233" filterUnits="objectBoundingBox" color-interpolation-filters="sRGB" x="-16" y="-13" width="408" height="243"><feFlood flood-opacity="0" result="BackgroundImageFix"/><feColorMatrix in="SourceAlpha" type="matrix" values="0 0 0 0 0 0 0 0 0 0 0 0 0 0 0 0 0 0 127 0"/><feOffset dy="3" dx="0"/><feGaussianBlur stdDeviation="4"/><feColorMatrix type="matrix" values="0 0 0 0 0 0 0 0 0 0 0 0 0 0 0 0 0 0 0.1599999964237213 0"/><feBlend mode="normal" in2="BackgroundImageFix" result="effect1_dropShadow"/><feBlend mode="normal" in="SourceGraphic" in2="effect1_dropShadow" result="shape"/></filter></defs><g style="mix-blend-mode:passthrough" filter="url(#master_svg0_3_3233)"><path d="M311.989,47C311.996,46.8336,312,46.667,312,46.5C312,27.9985,267.9,13,213.5,13C159.1,13,115,27.9985,115,46.5C115,46.667,115.0036,46.8336,115.0107,47L42,47L16,73L16,224L392,224L392,73L374,47L311.989,47Z" fill-rule="evenodd" fill="#EFEFEF" fill-opacity="1"/><path d="M312.99,47L311.989,47C311.996,46.8336,312,46.667,312,46.5C312,46.3331,311.996,46.1665,311.989,46.0001C311.203,27.729100000000003,267.409,13,213.5,13C159.591,13,115.7968,27.729,115.0107,46C115.0036,46.1664,115,46.333,115,46.5C115,46.667,115.0036,46.8336,115.0107,47L42,47L16,73L16,224L392,224L392,73L374,47L312.99,47ZM373.476,48L310.945,48L310.99,46.9569Q311,46.7289,311,46.5Q311,40.1637,303.633,34.239599999999996Q296.294,28.3384,282.828,23.758699999999997Q269.283,19.15201,251.698,16.62241Q233.468,14.00001,213.5,14Q193.532,14,175.302,16.62241Q157.717,19.152,144.172,23.758699999999997Q130.70600000000002,28.3383,123.367,34.239599999999996Q116,40.1635,116,46.5Q116,46.7286,116.01,46.957L116.055,48L42.4142,48L17,73.4142L17,223L391,223L391,73.3124L373.476,48Z" fill-rule="evenodd" fill="#998E8E" fill-opacity="1"/></g></svg>