<svg xmlns="http://www.w3.org/2000/svg" xmlns:xlink="http://www.w3.org/1999/xlink" fill="none" version="1.1" width="743" height="392.79620361328125" viewBox="0 0 743 392.79620361328125"><defs><filter id="master_svg0_0_7473" filterUnits="objectBoundingBox" color-interpolation-filters="sRGB" x="0" y="0" width="743" height="392.79620361328125"><feFlood flood-opacity="0" result="BackgroundImageFix"/><feBlend mode="normal" in="SourceGraphic" in2="BackgroundImageFix" result="shape"/><feColorMatrix in="SourceAlpha" type="matrix" result="hardAlpha" values="0 0 0 0 0 0 0 0 0 0 0 0 0 0 0 0 0 0 127 0"/><feOffset dy="0" dx="0"/><feGaussianBlur stdDeviation="28.657817840576172"/><feComposite in2="hardAlpha" operator="arithmetic" k2="-1" k3="1"/><feColorMatrix type="matrix" values="0 0 0 0 0.2823529541492462 0 0 0 0 1 0 0 0 0 1 0 0 0 0.800000011920929 0"/><feBlend mode="normal" in2="shape" result="effect1_innerShadow"/></filter></defs><g style="mix-blend-mode:passthrough"><g style="mix-blend-mode:passthrough" filter="url(#master_svg0_0_7473)"><path d="M21.9777,0C21.9777,0,718.902,0,718.902,0C718.902,0,743,27.3741,743,27.3741C743,27.3741,743,98.1991,743,98.1991C743,98.1991,743,196.398,743,196.398C743,196.398,743,294.597,743,294.597C743,294.597,743,343.697,743,343.697C743,343.697,743,368.246,743,368.246C743,368.246,721.022,392.796,721.022,392.796C721.022,392.796,21.9777,392.796,21.9777,392.796C21.9777,392.796,0,368.246,0,368.246C0,368.246,0,343.697,0,343.697C0,343.697,0,294.597,0,294.597C0,294.597,0,196.398,0,196.398C0,196.398,0,98.1991,0,98.1991C0,98.1991,0,49.0995,0,49.0995C0,49.0995,0,24.5498,0,24.5498C0,24.5498,21.9777,0,21.9777,0C21.9777,0,21.9777,0,21.9777,0Z" fill="#00000A" fill-opacity="1"/><path d="M22.9178,2.10333L2.10333,25.3537L2.10333,367.442L22.9178,390.693L720.082,390.693L740.897,367.442L740.897,28.168L717.951,2.10333L22.9178,2.10333ZM718.902,0L743,27.3741L743,368.246L721.022,392.796L21.9777,392.796L0,368.246L0,24.5498L21.9777,0L718.902,0Z" fill-rule="evenodd" fill="#31B4B4" fill-opacity="1"/></g><g style="mix-blend-mode:passthrough"><path d="M707.74505,8.4133L623.11035,8.4133L612.59375,0L717.83475,0L742.99975,25.1652L742.99975,73.6164L734.5867499999999,63.0998L734.5867499999999,35.255L707.74505,8.4133Z" fill-rule="evenodd" fill="#48FFFF" fill-opacity="1"/></g><g style="mix-blend-mode:passthrough" transform="matrix(-1,0,0,-1,260.8123779296875,785.5924072265625)"><path d="M225.55738896484377,401.20950361328124L140.92278896484376,401.20950361328124L130.40618896484375,392.79620361328125L235.64718896484374,392.79620361328125L260.81218896484376,417.9614036132813L260.81218896484376,466.41260361328125L252.39918896484374,455.89600361328127L252.39918896484374,428.0513036132812L225.55738896484377,401.20950361328124Z" fill-rule="evenodd" fill="#48FFFF" fill-opacity="1"/></g><g style="mix-blend-mode:passthrough" transform="matrix(-1,0,0,1,260.8123779296875,0)"><path d="M224.50578896484376,8.4133L140.92278896484376,8.4133L130.40618896484375,0L235.64718896484374,0L260.81218896484376,25.1652L260.81218896484376,73.6164L252.39918896484374,63.0998L252.39918896484374,36.3067L224.50578896484376,8.4133Z" fill-rule="evenodd" fill="#48FFFF" fill-opacity="1"/></g><g style="mix-blend-mode:passthrough" transform="matrix(1,0,0,-1,0,785.5924072265625)"><path d="M706.69335,401.20950361328124L623.11035,401.20950361328124L612.59375,392.79620361328125L717.83475,392.79620361328125L742.99975,417.9614036132813L742.99975,466.41260361328125L734.5867499999999,455.89600361328127L734.5867499999999,429.1029036132812L706.69335,401.20950361328124Z" fill-rule="evenodd" fill="#48FFFF" fill-opacity="1"/></g></g></svg>